<?xml version="1.0" encoding="utf-8"?>
<svg viewBox="0 0 24 24" fill="currentColor" xmlns="http://www.w3.org/2000/svg">
  <path fill-rule="evenodd" d="M 2.25 12 C 2.25 6.615 6.615 2.25 12 2.25 C 17.385 2.25 21.75 6.615 21.75 12 C 21.75 17.385 17.385 21.75 12 21.75 C 6.615 21.75 2.25 17.385 2.25 12 Z" clip-rule="evenodd" style="fill: rgb(245, 236, 225); paint-order: stroke;" transform="matrix(1, 0, 0, 1, -2.220446049250313e-16, 0)"/>
  <path d="M 17.562 8.135 C 17.741 8.315 17.741 8.607 17.562 8.787 L 10.484 15.864 C 10.302 16.048 10.003 16.045 9.824 15.858 L 6.439 12.318 C 6.188 12.069 6.301 11.639 6.644 11.545 C 6.812 11.5 6.99 11.552 7.106 11.681 L 10.165 14.878 L 16.909 8.135 C 17.09 7.955 17.381 7.955 17.562 8.135 Z" style="fill: rgb(197, 165, 127);" transform="matrix(1, 0, 0, 1, -2.220446049250313e-16, 0)"/>
</svg>