<svg xmlns="http://www.w3.org/2000/svg" xmlns:xlink="http://www.w3.org/1999/xlink" width="1080" zoomAndPan="magnify" viewBox="0 0 810 809.999993" height="1080" preserveAspectRatio="xMidYMid meet" version="1.0"><defs><g/></defs><g fill="#000000" fill-opacity="1"><g transform="translate(-50.757294, 770.373314)"><g><path d="M 215.046875 -517.03125 L 215.046875 0 L 74 0 L 74 -517.03125 Z M 144.75 -719.59375 C 165.71875 -719.59375 183.753906 -714.734375 198.859375 -705.015625 C 213.960938 -695.304688 221.515625 -677.195312 221.515625 -650.6875 C 221.515625 -624.476562 213.960938 -606.363281 198.859375 -596.34375 C 183.753906 -586.320312 165.71875 -581.3125 144.75 -581.3125 C 123.476562 -581.3125 105.363281 -586.320312 90.40625 -596.34375 C 75.457031 -606.363281 67.984375 -624.476562 67.984375 -650.6875 C 67.984375 -677.195312 75.457031 -695.304688 90.40625 -705.015625 C 105.363281 -714.734375 123.476562 -719.59375 144.75 -719.59375 Z M 144.75 -719.59375 "/></g></g><g transform="translate(238.280907, 770.373314)"><g><path d="M 367.65625 -526.75 C 422.84375 -526.75 467.238281 -511.71875 500.84375 -481.65625 C 534.445312 -451.59375 551.25 -403.421875 551.25 -337.140625 L 551.25 0 L 410.203125 0 L 410.203125 -301.984375 C 410.203125 -338.984375 403.492188 -366.882812 390.078125 -385.6875 C 376.671875 -404.5 355.632812 -413.90625 326.96875 -413.90625 C 283.800781 -413.90625 254.351562 -399.257812 238.625 -369.96875 C 222.90625 -340.675781 215.046875 -298.4375 215.046875 -243.25 L 215.046875 0 L 74 0 L 74 -517.03125 L 181.75 -517.03125 L 200.703125 -450.90625 L 208.578125 -450.90625 C 219.671875 -468.78125 233.460938 -483.265625 249.953125 -494.359375 C 266.453125 -505.460938 284.796875 -513.632812 304.984375 -518.875 C 325.179688 -524.125 346.070312 -526.75 367.65625 -526.75 Z M 367.65625 -526.75 "/></g></g></g></svg>